<?xml version="1.0" encoding="UTF-8"?>
<!DOCTYPE svg PUBLIC "-//W3C//DTD SVG 1.1//EN" "http://www.w3.org/Graphics/SVG/1.1/DTD/svg11.dtd">
<svg version="1.1" xmlns="http://www.w3.org/2000/svg" xmlns:xlink="http://www.w3.org/1999/xlink" x="0px" y="0px" width="900" height="780" viewBox="0, 0, 900, 780">
  <g id="Background">
    <rect x="0" y="0" width="900" height="780" fill="#000000" fill-opacity="0"/>
  </g>
  <g id="Layer 1">
    <text transform="matrix(0.707, -0.707, 0.707, 0.707, 444.171, 324.5)">
      <tspan x="-420.3" y="11.5" font-family="Verdana-Bold" font-size="30" fill="#294270">checkio([-21,-23,-69,-67,1,41,97,49,27]) == 125</tspan>
    </text>
    <text transform="matrix(0.707, -0.707, 0.707, 0.707, 188.784, 177.147)">
      <tspan x="-232.024" y="11.5" font-family="Verdana-Bold" font-size="30" fill="#294270">checkio([5,-3,-1,2]) == 6</tspan>
    </text>
    <path d="M58.609,420.12 L117.982,419.731" fill-opacity="0" stroke="#737370" stroke-width="10" stroke-linecap="round" stroke-linejoin="round"/>
    <path d="M117.982,419.731 L117.982,361.267" fill-opacity="0" stroke="#737370" stroke-width="6" stroke-linecap="round" stroke-linejoin="round"/>
    <path d="M117.982,361.267 L179.241,361.267" fill-opacity="0" stroke="#737370" stroke-width="6" stroke-linecap="round" stroke-linejoin="round"/>
    <path d="M179.241,361.267 L179.241,300.5" fill-opacity="0" stroke="#737370" stroke-width="6" stroke-linecap="round" stroke-linejoin="round"/>
    <path d="M179.241,300.5 L239.241,300.5" fill-opacity="0" stroke="#737370" stroke-width="6" stroke-linecap="round" stroke-linejoin="round"/>
    <path d="M239.241,300.5 L239.241,240.5" fill-opacity="0" stroke="#737370" stroke-width="6" stroke-linecap="round" stroke-linejoin="round"/>
    <path d="M239.241,240.5 L299.241,240.5" fill-opacity="0" stroke="#737370" stroke-width="6" stroke-linecap="round" stroke-linejoin="round"/>
    <path d="M299.241,240.5 L299.241,180.5" fill-opacity="0" stroke="#737370" stroke-width="6" stroke-linecap="round" stroke-linejoin="round"/>
    <path d="M299.241,180.5 L359.241,180.5" fill-opacity="0" stroke="#737370" stroke-width="6" stroke-linecap="round" stroke-linejoin="round"/>
    <path d="M359.241,180.5 L359.241,120.5" fill-opacity="0" stroke="#737370" stroke-width="6" stroke-linecap="round" stroke-linejoin="round"/>
    <path d="M419.241,120.5 L359.241,120.5" fill-opacity="0" stroke="#737370" stroke-width="10" stroke-linecap="round" stroke-linejoin="round"/>
    <text transform="matrix(1, 0, 0, 1, 87.796, 443.731)">
      <tspan x="-14.219" y="11.5" font-family="Verdana-Bold" font-size="36" fill="#294270">0</tspan>
    </text>
    <text transform="matrix(1, 0, 0, 1, 148.111, 385.267)">
      <tspan x="-14.219" y="11.5" font-family="Verdana-Bold" font-size="36" fill="#294270">5</tspan>
    </text>
    <text transform="matrix(1, 0, 0, 1, 208.741, 324.5)">
      <tspan x="-23.818" y="11.5" font-family="Verdana-Bold" font-size="36" fill="#294270">-3</tspan>
    </text>
    <text transform="matrix(1, 0, 0, 1, 268.741, 264.5)">
      <tspan x="-23.818" y="11.5" font-family="Verdana-Bold" font-size="36" fill="#294270">-1</tspan>
    </text>
    <text transform="matrix(1, 0, 0, 1, 328.741, 204.5)">
      <tspan x="-14.219" y="11.5" font-family="Verdana-Bold" font-size="36" fill="#294270">2</tspan>
    </text>
    <text transform="matrix(1, 0, 0, 1, 388.741, 144.5)">
      <tspan x="-14.219" y="11.5" font-family="Verdana-Bold" font-size="36" fill="#294270">0</tspan>
    </text>
    <path d="M179.241,720.498 L238.613,720.11" fill-opacity="0" stroke="#737370" stroke-width="10" stroke-linecap="round" stroke-linejoin="round"/>
    <path d="M479.241,479.731 L479.241,420.882" fill-opacity="0" stroke="#737370" stroke-width="6" stroke-linecap="round" stroke-linejoin="round"/>
    <path d="M479.241,420.882 L537.986,420.882" fill-opacity="0" stroke="#737370" stroke-width="6" stroke-linecap="round" stroke-linejoin="round"/>
    <path d="M537.986,420.882 L537.986,360.116" fill-opacity="0" stroke="#737370" stroke-width="6" stroke-linecap="round" stroke-linejoin="round"/>
    <path d="M537.986,360.116 L597.986,360.5" fill-opacity="0" stroke="#737370" stroke-width="6" stroke-linecap="round" stroke-linejoin="round"/>
    <path d="M597.986,360.5 L597.986,300.5" fill-opacity="0" stroke="#737370" stroke-width="6" stroke-linecap="round" stroke-linejoin="round"/>
    <path d="M597.986,300.5 L657.986,300.5" fill-opacity="0" stroke="#737370" stroke-width="6" stroke-linecap="round" stroke-linejoin="round"/>
    <path d="M657.986,300.5 L657.986,240.5" fill-opacity="0" stroke="#737370" stroke-width="6" stroke-linecap="round" stroke-linejoin="round"/>
    <path d="M657.986,240.5 L717.986,240.5" fill-opacity="0" stroke="#737370" stroke-width="6" stroke-linecap="round" stroke-linejoin="round"/>
    <path d="M717.986,240.5 L717.986,180.5" fill-opacity="0" stroke="#737370" stroke-width="6" stroke-linecap="round" stroke-linejoin="round"/>
    <path d="M839.245,120.5 L779.245,120.5" fill-opacity="0" stroke="#737370" stroke-width="10" stroke-linecap="round" stroke-linejoin="round"/>
    <text transform="matrix(1, 0, 0, 1, 208.427, 744.11)">
      <tspan x="-14.219" y="11.5" font-family="Verdana-Bold" font-size="36" fill="#294270">0</tspan>
    </text>
    <text transform="matrix(1, 0, 0, 1, 541.971, 445.267)">
      <tspan x="-49.333" y="11.5" font-family="Verdana-Bold" font-size="36" fill="#294270">1</tspan>
    </text>
    <text transform="matrix(1, 0, 0, 1, 584.811, 384.5)">
      <tspan x="-41.143" y="11.5" font-family="Verdana-Bold" font-size="36" fill="#294270">41</tspan>
    </text>
    <text transform="matrix(1, 0, 0, 1, 644.985, 324.5)">
      <tspan x="-41.317" y="11.5" font-family="Verdana-Bold" font-size="36" fill="#294270">97</tspan>
    </text>
    <text transform="matrix(1, 0, 0, 1, 698.934, 264.5)">
      <tspan x="-34.334" y="11.5" font-family="Verdana-Bold" font-size="36" fill="#294270">49</tspan>
    </text>
    <text transform="matrix(1, 0, 0, 1, 760.457, 204.5)">
      <tspan x="-33.685" y="11.5" font-family="Verdana-Bold" font-size="36" fill="#294270">27</tspan>
    </text>
    <path d="M238.613,720.498 L238.613,659.731" fill-opacity="0" stroke="#737370" stroke-width="6" stroke-linecap="round" stroke-linejoin="round"/>
    <path d="M238.613,659.731 L298.613,659.731" fill-opacity="0" stroke="#737370" stroke-width="6" stroke-linecap="round" stroke-linejoin="round"/>
    <path d="M298.613,659.731 L298.613,599.731" fill-opacity="0" stroke="#737370" stroke-width="6" stroke-linecap="round" stroke-linejoin="round"/>
    <path d="M298.613,599.731 L358.613,599.731" fill-opacity="0" stroke="#737370" stroke-width="6" stroke-linecap="round" stroke-linejoin="round"/>
    <path d="M358.613,599.731 L358.613,539.731" fill-opacity="0" stroke="#737370" stroke-width="6" stroke-linecap="round" stroke-linejoin="round"/>
    <path d="M358.613,539.731 L418.613,539.731" fill-opacity="0" stroke="#737370" stroke-width="6" stroke-linecap="round" stroke-linejoin="round"/>
    <path d="M418.613,539.731 L418.613,479.731" fill-opacity="0" stroke="#737370" stroke-width="6" stroke-linecap="round" stroke-linejoin="round"/>
    <text transform="matrix(1, 0, 0, 1, 463.662, 523.731)">
      <tspan x="-39.944" y="-8.5" font-family="Verdana-Bold" font-size="36" fill="#294270">-67</tspan>
    </text>
    <text transform="matrix(1, 0, 0, 1, 339.095, 623.731)">
      <tspan x="-34.8" y="11.5" font-family="Verdana-Bold" font-size="36" fill="#294270">-23</tspan>
    </text>
    <text transform="matrix(1, 0, 0, 1, 402.124, 605.731)">
      <tspan x="-36.193" y="-30.5" font-family="Verdana-Bold" font-size="36" fill="#294270">-69</tspan>
    </text>
    <path d="M418.613,479.731 L476.727,479.731" fill-opacity="0" stroke="#737370" stroke-width="6" stroke-linecap="round" stroke-linejoin="round"/>
    <text transform="matrix(1, 0, 0, 1, 280.531, 683.731)">
      <tspan x="-36.236" y="11.5" font-family="Verdana-Bold" font-size="36" fill="#294270">-21</tspan>
    </text>
    <path d="M717.986,181.267 L779.245,181.267" fill-opacity="0" stroke="#737370" stroke-width="6" stroke-linecap="round" stroke-linejoin="round"/>
    <path d="M779.245,181.267 L779.245,120.5" fill-opacity="0" stroke="#737370" stroke-width="6" stroke-linecap="round" stroke-linejoin="round"/>
    <text transform="matrix(1, 0, 0, 1, 801.03, 144.5)">
      <tspan x="-14.219" y="11.5" font-family="Verdana-Bold" font-size="36" fill="#294270">0</tspan>
    </text>
    <g>
      <path d="M89.241,410.267 C89.241,257.618 129.345,290.736 137.432,334.589" fill-opacity="0" stroke="#F0801A" stroke-width="6" stroke-linecap="round"/>
      <path d="M137.432,334.589 L131.082,331.172 L138.563,346.536 L143.029,330.042 z" fill="#F0801A" fill-opacity="1" stroke="#F0801A" stroke-width="6" stroke-opacity="1"/>
    </g>
    <g>
      <path d="M155.5,349.5 C155.5,189.049 249.293,136.266 259.586,214.538" fill-opacity="0" stroke="#F0801A" stroke-width="6" stroke-linecap="round"/>
      <path d="M259.586,214.538 L253.354,210.911 L260.318,226.515 L265.331,210.179 z" fill="#F0801A" fill-opacity="1" stroke="#F0801A" stroke-width="6" stroke-opacity="1"/>
    </g>
    <g>
      <path d="M275.5,229.5 C275.5,80.022 307.881,117.021 315.621,154.621" fill-opacity="0" stroke="#F0801A" stroke-width="6" stroke-linecap="round"/>
      <path d="M315.621,154.621 L309.217,151.306 L316.941,166.549 L321.144,149.986 z" fill="#F0801A" fill-opacity="1" stroke="#F0801A" stroke-width="6" stroke-opacity="1"/>
    </g>
    <g>
      <path d="M335.5,169.5 C335.5,19.98 377.187,56.221 387.13,93.636" fill-opacity="0" stroke="#F0801A" stroke-width="6" stroke-linecap="round"/>
      <path d="M387.13,93.636 L380.626,90.523 L388.824,105.516 L392.505,88.83 z" fill="#F0801A" fill-opacity="1" stroke="#F0801A" stroke-width="6" stroke-opacity="1"/>
    </g>
    <g>
      <path d="M209.241,708.731 C210.372,556.978 250.803,590.488 259.043,633.831" fill-opacity="0" stroke="#F0801A" stroke-width="6" stroke-linecap="round"/>
      <path d="M259.043,633.831 L252.682,630.433 L260.211,645.774 L264.625,629.266 z" fill="#F0801A" fill-opacity="1" stroke="#F0801A" stroke-width="6" stroke-opacity="1"/>
    </g>
    <g>
      <path d="M275.5,648.731 C276.067,441.619 357.824,471.158 372.719,516.212" fill-opacity="0" stroke="#F0801A" stroke-width="6" stroke-linecap="round"/>
      <path d="M372.719,516.212 L366.174,513.186 L374.571,528.069 L378.03,511.335 z" fill="#F0801A" fill-opacity="1" stroke="#F0801A" stroke-width="6" stroke-opacity="1"/>
    </g>
    <g>
      <path d="M395.5,530.5 C395.5,370.059 482.706,317.064 492.286,395.291" fill-opacity="0" stroke="#F0801A" stroke-width="6" stroke-linecap="round"/>
      <path d="M492.286,395.291 L486.069,391.638 L492.967,407.272 L498.049,390.957 z" fill="#F0801A" fill-opacity="1" stroke="#F0801A" stroke-width="6" stroke-opacity="1"/>
    </g>
    <g>
      <path d="M515.5,410.267 C515.5,260.809 550.377,297.183 558.722,334.636" fill-opacity="0" stroke="#F0801A" stroke-width="6" stroke-linecap="round"/>
      <path d="M558.722,334.636 L552.289,331.377 L560.147,346.551 L564.205,329.952 z" fill="#F0801A" fill-opacity="1" stroke="#F0801A" stroke-width="6" stroke-opacity="1"/>
    </g>
    <g>
      <path d="M575.5,349.5 C575.5,200.001 610.397,237.031 618.729,274.637" fill-opacity="0" stroke="#F0801A" stroke-width="6" stroke-linecap="round"/>
      <path d="M618.729,274.637 L612.298,271.375 L620.149,286.553 L624.214,269.955 z" fill="#F0801A" fill-opacity="1" stroke="#F0801A" stroke-width="6" stroke-opacity="1"/>
    </g>
    <g>
      <path d="M635.5,289.5 C635.5,140.001 670.397,177.031 678.729,214.637" fill-opacity="0" stroke="#F0801A" stroke-width="6" stroke-linecap="round"/>
      <path d="M678.729,214.637 L672.298,211.375 L680.149,226.553 L684.214,209.955 z" fill="#F0801A" fill-opacity="1" stroke="#F0801A" stroke-width="6" stroke-opacity="1"/>
    </g>
    <g>
      <path d="M695.5,229.5 C695.5,80.001 730.397,117.031 738.729,154.637" fill-opacity="0" stroke="#F0801A" stroke-width="6" stroke-linecap="round"/>
      <path d="M738.729,154.637 L732.298,151.375 L740.149,166.553 L744.214,149.955 z" fill="#F0801A" fill-opacity="1" stroke="#F0801A" stroke-width="6" stroke-opacity="1"/>
    </g>
    <g>
      <path d="M759.4,169.5 C759.4,20.001 798.541,56.211 807.886,93.621" fill-opacity="0" stroke="#F0801A" stroke-width="6" stroke-linecap="round"/>
      <path d="M807.886,93.621 L801.408,90.453 L809.48,105.514 L813.302,88.859 z" fill="#F0801A" fill-opacity="1" stroke="#F0801A" stroke-width="6" stroke-opacity="1"/>
    </g>
  </g>
  <defs/>
</svg>
