<?xml version="1.0" encoding="UTF-8" standalone="no"?>
<svg
   xmlns:dc="http://purl.org/dc/elements/1.1/"
   xmlns:cc="http://creativecommons.org/ns#"
   xmlns:rdf="http://www.w3.org/1999/02/22-rdf-syntax-ns#"
   xmlns:svg="http://www.w3.org/2000/svg"
   xmlns="http://www.w3.org/2000/svg"
   width="1080"
   height="1080"
   viewBox="0 0 285.75001 285.75001"
   version="1.1"
   id="svg8">
  <defs
     id="defs2">
    <marker
       style="overflow:visible"
       id="Arrow1Mend"
       refX="0"
       refY="0"
       orient="auto">
      <path
         transform="matrix(-0.4,0,0,-0.4,-4,0)"
         style="fill:#fa8f00;fill-opacity:1;fill-rule:evenodd;stroke:#fa8f00;stroke-width:1.00000003pt;stroke-opacity:1"
         d="M 0,0 5,-5 -12.5,0 5,5 Z"
         id="path5322" />
    </marker>
    <marker
       style="overflow:visible"
       id="Arrow1Mend-4"
       refX="0"
       refY="0"
       orient="auto">
      <path
         transform="matrix(-0.4,0,0,-0.4,-4,0)"
         style="fill:#fa8f00;fill-opacity:1;fill-rule:evenodd;stroke:#fa8f00;stroke-width:1.00000003pt;stroke-opacity:1"
         d="M 0,0 5,-5 -12.5,0 5,5 Z"
         id="path5322-5" />
    </marker>
  </defs>
  <metadata
     id="metadata5">
    <rdf:RDF>
      <cc:Work
         rdf:about="">
        <dc:format>image/svg+xml</dc:format>
        <dc:type
           rdf:resource="http://purl.org/dc/dcmitype/StillImage" />
        <dc:title></dc:title>
      </cc:Work>
    </rdf:RDF>
  </metadata>
  <rect
     style="fill:#c9ebfb;fill-opacity:1;stroke:none;stroke-width:18.2091732;stroke-linecap:round;stroke-miterlimit:4;stroke-dasharray:none;stroke-opacity:1;paint-order:markers stroke fill"
     id="rect7624"
     width="285.75"
     height="285.75"
     x="0.0084436871"
     y="-0.0035707499" />
  <g
     id="g152"
     transform="matrix(1.4552084,0,0,1.4552084,353.40658,-315.79146)" />
  <g
     id="g154"
     transform="matrix(1.4552084,0,0,1.4552084,353.40658,-315.79146)" />
  <g
     id="g156"
     transform="matrix(1.4552084,0,0,1.4552084,353.40658,-315.79146)" />
  <g
     id="g158"
     transform="matrix(1.4552084,0,0,1.4552084,353.40658,-315.79146)" />
  <g
     id="g160"
     transform="matrix(1.4552084,0,0,1.4552084,353.40658,-315.79146)" />
  <g
     id="g162"
     transform="matrix(1.4552084,0,0,1.4552084,353.40658,-315.79146)" />
  <g
     id="g164"
     transform="matrix(1.4552084,0,0,1.4552084,353.40658,-315.79146)" />
  <g
     id="g166"
     transform="matrix(1.4552084,0,0,1.4552084,353.40658,-315.79146)" />
  <g
     id="g168"
     transform="matrix(1.4552084,0,0,1.4552084,353.40658,-315.79146)" />
  <g
     id="g170"
     transform="matrix(1.4552084,0,0,1.4552084,353.40658,-315.79146)" />
  <g
     id="g172"
     transform="matrix(1.4552084,0,0,1.4552084,353.40658,-315.79146)" />
  <g
     id="g174"
     transform="matrix(1.4552084,0,0,1.4552084,353.40658,-315.79146)" />
  <g
     id="g176"
     transform="matrix(1.4552084,0,0,1.4552084,353.40658,-315.79146)" />
  <g
     id="g178"
     transform="matrix(1.4552084,0,0,1.4552084,353.40658,-315.79146)" />
  <g
     id="g180"
     transform="matrix(1.4552084,0,0,1.4552084,353.40658,-315.79146)" />
  <flowRoot
     style="font-style:normal;font-variant:normal;font-weight:500;font-stretch:normal;font-size:40px;line-height:1.25;font-family:Roboto;-inkscape-font-specification:'Roboto Medium';letter-spacing:0px;word-spacing:0px;fill:#000000;fill-opacity:1;stroke:none"
     id="flowRoot1041"
     xml:space="preserve"
     transform="matrix(1.4552084,0,0,1.4552084,353.40658,-315.79146)"><flowRegion
       id="flowRegion1043"><rect
         y="550.21259"
         x="1147.9391"
         height="40.43428"
         width="3.9448078"
         id="rect1045" /></flowRegion><flowPara
       id="flowPara1047" /></flowRoot>  <g
     id="g2059"
     transform="matrix(0.52916668,0,0,0.52916668,9.5024532,7.3535496)">
    <path
       id="path2055"
       d="m 503.467,183.415 v 307.2 c 0,9.426 -7.641,17.067 -17.067,17.067 H 25.6 c -9.426,0 -17.067,-7.641 -17.067,-17.067 v -51.2 c 0,-9.426 7.641,-17.067 17.067,-17.067 h 93.867 c 4.713,0 8.533,-3.82 8.533,-8.533 v -68.267 c 0,-4.713 3.821,-8.533 8.533,-8.533 h 102.4 c 4.713,0 8.533,-3.82 8.533,-8.533 v -68.267 c 0,-4.713 3.821,-8.533 8.533,-8.533 h 110.933 c 4.713,0 8.533,-3.821 8.533,-8.533 v -68.267 c 0,-4.713 3.821,-8.533 8.533,-8.533 h 102.4 c 9.428,-10e-4 17.069,7.64 17.069,17.066 z"
       style="fill:#24ae5f" />
    <path
       id="path2057"
       d="m 511.343,58.675 c 1.321,-3.19 0.59,-6.861 -1.852,-9.301 L 466.825,6.707 c -3.348,-3.234 -8.671,-3.188 -11.962,0.104 -3.292,3.292 -3.338,8.614 -0.104,11.962 l 28.109,28.109 H 324.267 c -9.426,0 -17.067,7.641 -17.067,17.067 v 68.267 H 204.8 c -9.426,0 -17.067,7.641 -17.067,17.067 v 68.267 h -102.4 c -9.426,0 -17.067,7.641 -17.067,17.067 v 51.2 H 8.533 c -4.713,0 -8.533,3.82 -8.533,8.533 0,4.713 3.821,8.533 8.533,8.533 h 59.733 c 9.426,0 17.067,-7.641 17.067,-17.067 v -51.2 h 102.4 c 9.426,0 17.067,-7.641 17.067,-17.067 v -68.267 h 102.4 c 9.426,0 17.067,-7.641 17.067,-17.067 V 63.948 h 158.601 l -28.1,28.1 c -2.218,2.142 -3.108,5.315 -2.327,8.299 0.781,2.984 3.111,5.313 6.094,6.094 2.983,0.781 6.156,-0.109 8.299,-2.327 L 509.5,61.448 c 0.79,-0.795 1.417,-1.737 1.843,-2.773 z"
       style="fill:#4482c3" />
  </g>
  <g
     id="g2061"
     transform="matrix(0.52916668,0,0,0.52916668,9.5024532,7.3535496)" />
  <g
     id="g2063"
     transform="matrix(0.52916668,0,0,0.52916668,9.5024532,7.3535496)" />
  <g
     id="g2065"
     transform="matrix(0.52916668,0,0,0.52916668,9.5024532,7.3535496)" />
  <g
     id="g2067"
     transform="matrix(0.52916668,0,0,0.52916668,9.5024532,7.3535496)" />
  <g
     id="g2069"
     transform="matrix(0.52916668,0,0,0.52916668,9.5024532,7.3535496)" />
  <g
     id="g2071"
     transform="matrix(0.52916668,0,0,0.52916668,9.5024532,7.3535496)" />
  <g
     id="g2073"
     transform="matrix(0.52916668,0,0,0.52916668,9.5024532,7.3535496)" />
  <g
     id="g2075"
     transform="matrix(0.52916668,0,0,0.52916668,9.5024532,7.3535496)" />
  <g
     id="g2077"
     transform="matrix(0.52916668,0,0,0.52916668,9.5024532,7.3535496)" />
  <g
     id="g2079"
     transform="matrix(0.52916668,0,0,0.52916668,9.5024532,7.3535496)" />
  <g
     id="g2081"
     transform="matrix(0.52916668,0,0,0.52916668,9.5024532,7.3535496)" />
  <g
     id="g2083"
     transform="matrix(0.52916668,0,0,0.52916668,9.5024532,7.3535496)" />
  <g
     id="g2085"
     transform="matrix(0.52916668,0,0,0.52916668,9.5024532,7.3535496)" />
  <g
     id="g2087"
     transform="matrix(0.52916668,0,0,0.52916668,9.5024532,7.3535496)" />
  <g
     id="g2089"
     transform="matrix(0.52916668,0,0,0.52916668,9.5024532,7.3535496)" />
</svg>
